<svg version="1.1" id="ntnu-logo" xmlns="http://www.w3.org/2000/svg" xmlns:xlink="http://www.w3.org/1999/xlink" x="0px" y="0px"
	 width="205.78px" height="55.861px" viewBox="0 0 205.78 55.861" enable-background="new 0 0 205.78 55.861" xml:space="preserve">
<g id="ntnu-symbol">
	<path id="symbol-inside" fill="#FFFFFF" d="M15.684,9.227c-3.566,0-6.456,2.891-6.456,6.456c0,3.566,2.89,6.456,6.456,6.456
		c3.565,0,6.454-2.89,6.454-6.456C22.138,12.118,19.249,9.227,15.684,9.227"/>
	<path id="symbol-outside" fill="#FFFFFF" d="M23.605,0H7.866C3.521,0,0,3.521,0,7.865v15.741c0,4.343,3.521,7.866,7.866,7.866
		h15.74c4.343,0,7.866-3.523,7.866-7.866V7.865C31.472,3.521,27.949,0,23.605,0 M7.866,7.865h15.74v15.742H7.866V7.865z"/>
</g>
<g id="text">
	<g id="tagline">
		<g id="verden">
			<polyline id="v1" fill="#FFFFFF" points="173.043,52.612 172.099,52.612 170.195,44.464 171.187,44.464 172.58,51.203 
				173.972,44.464 174.949,44.464 173.043,52.612 			"/>
			<path id="e4" fill="#FFFFFF" d="M177.684,48.674c0,1.664,0.05,2.48,0.417,2.896c0.177,0.208,0.448,0.368,0.816,0.368
				c0.32,0,0.608-0.096,0.816-0.319c0.239-0.257,0.367-0.656,0.367-1.153h0.882c-0.017,0.785-0.177,1.281-0.594,1.713
				c-0.351,0.368-0.912,0.561-1.472,0.561c-0.64,0-1.121-0.208-1.472-0.593c-0.545-0.576-0.656-1.648-0.656-3.601
				c0-1.953,0.111-3.042,0.656-3.617c0.351-0.386,0.832-0.594,1.456-0.594s1.104,0.208,1.457,0.594
				c0.575,0.624,0.64,1.776,0.64,3.745H177.684 M179.702,45.504c-0.177-0.208-0.434-0.367-0.801-0.367
				c-0.368,0-0.641,0.159-0.817,0.367c-0.32,0.368-0.383,1.072-0.4,2.449h2.417C180.085,46.577,180.021,45.873,179.702,45.504z"/>
			<path id="r3" fill="#FFFFFF" d="M186.085,45.185c-0.96,0-1.585,0.607-1.585,1.584v5.843h-0.896v-8.148h0.882v0.865
				c0.08-0.176,0.271-0.399,0.398-0.512c0.368-0.337,0.85-0.481,1.394-0.481v0.85H186.085"/>
			<path id="d2" fill="#FFFFFF" d="M191.364,52.612v-0.656c-0.08,0.176-0.321,0.4-0.448,0.496c-0.273,0.191-0.561,0.287-0.929,0.287
				c-0.496,0-0.929-0.191-1.266-0.575c-0.496-0.576-0.606-1.585-0.606-3.617c0-2.033,0.11-3.059,0.606-3.635
				c0.306-0.352,0.705-0.575,1.266-0.575c0.368,0,0.655,0.08,0.929,0.256c0.16,0.096,0.335,0.304,0.431,0.479v-3.856h0.897v11.396
				H191.364 M191.347,46.561c0-0.528-0.128-0.88-0.366-1.121c-0.209-0.192-0.48-0.304-0.785-0.304c-0.32,0-0.608,0.16-0.784,0.368
				c-0.369,0.448-0.401,1.297-0.401,3.042c0,1.744,0.032,2.576,0.401,3.024c0.176,0.208,0.464,0.368,0.784,0.368
				c0.305,0,0.576-0.096,0.785-0.288c0.238-0.24,0.366-0.608,0.366-1.137V46.561z"/>
			<path id="e5" fill="#FFFFFF" d="M195.81,48.674c0,1.664,0.05,2.48,0.417,2.896c0.177,0.208,0.448,0.368,0.816,0.368
				c0.32,0,0.608-0.096,0.816-0.319c0.239-0.257,0.367-0.656,0.367-1.153h0.882c-0.017,0.785-0.177,1.281-0.594,1.713
				c-0.351,0.368-0.912,0.561-1.472,0.561c-0.64,0-1.121-0.208-1.472-0.593c-0.545-0.576-0.656-1.648-0.656-3.601
				c0-1.953,0.111-3.042,0.656-3.617c0.351-0.386,0.832-0.594,1.456-0.594s1.104,0.208,1.457,0.594
				c0.575,0.624,0.64,1.776,0.64,3.745H195.81 M197.828,45.504c-0.177-0.208-0.434-0.367-0.801-0.367
				c-0.368,0-0.641,0.159-0.817,0.367c-0.32,0.368-0.383,1.072-0.4,2.449h2.417C198.211,46.577,198.147,45.873,197.828,45.504z"/>
			<path id="n5" fill="#FFFFFF" d="M204.883,52.612v-6.131c0-0.896-0.496-1.329-1.12-1.329s-1.137,0.433-1.137,1.329v6.131h-0.896
				v-8.147h0.881v0.656c0.096-0.176,0.319-0.4,0.464-0.496c0.256-0.176,0.56-0.288,0.928-0.288c0.544,0,0.945,0.208,1.281,0.56
				c0.319,0.336,0.496,0.784,0.496,1.602v6.114H204.883"/>
		</g>
		<g id="bedre">
			<path id="b1" fill="#FFFFFF" d="M139.127,52.164c-0.336,0.384-0.768,0.576-1.264,0.576c-0.368,0-0.656-0.096-0.93-0.288
				c-0.128-0.096-0.384-0.32-0.464-0.496v0.656h-0.881V41.214h0.897v3.858c0.096-0.176,0.288-0.384,0.447-0.479
				c0.273-0.177,0.562-0.258,0.93-0.258c0.559,0,0.96,0.226,1.264,0.577c0.497,0.576,0.608,1.601,0.608,3.634
				C139.735,50.579,139.624,51.587,139.127,52.164 M138.422,45.504c-0.175-0.208-0.464-0.367-0.784-0.367
				c-0.304,0-0.559,0.111-0.768,0.304c-0.24,0.24-0.384,0.592-0.384,1.12v3.954c0,0.527,0.144,0.896,0.384,1.136
				c0.209,0.192,0.464,0.288,0.768,0.288c0.32,0,0.609-0.16,0.784-0.368c0.369-0.448,0.417-1.28,0.417-3.024
				C138.839,46.801,138.791,45.953,138.422,45.504z"/>
			<path id="e2_1_" fill="#FFFFFF" d="M143.013,48.674c0,1.664,0.049,2.48,0.417,2.896c0.177,0.208,0.448,0.368,0.817,0.368
				c0.319,0,0.606-0.096,0.814-0.319c0.24-0.257,0.368-0.656,0.368-1.153h0.881c-0.016,0.785-0.176,1.281-0.593,1.713
				c-0.351,0.368-0.912,0.561-1.471,0.561c-0.641,0-1.122-0.208-1.473-0.593c-0.546-0.576-0.656-1.648-0.656-3.601
				c0-1.953,0.11-3.042,0.656-3.617c0.351-0.386,0.832-0.594,1.456-0.594c0.623,0,1.104,0.208,1.456,0.594
				c0.576,0.624,0.641,1.776,0.641,3.745H143.013 M145.031,45.504c-0.178-0.208-0.434-0.367-0.801-0.367
				c-0.368,0-0.641,0.159-0.816,0.367c-0.321,0.368-0.384,1.072-0.401,2.449h2.417C145.415,46.577,145.35,45.873,145.031,45.504z"/>
			<path id="d1" fill="#FFFFFF" d="M151.911,52.612v-0.656c-0.08,0.176-0.321,0.4-0.449,0.496c-0.271,0.191-0.56,0.287-0.928,0.287
				c-0.496,0-0.928-0.191-1.266-0.575c-0.495-0.576-0.606-1.585-0.606-3.617c0-2.033,0.111-3.059,0.606-3.635
				c0.306-0.352,0.705-0.575,1.266-0.575c0.368,0,0.656,0.08,0.928,0.256c0.161,0.096,0.336,0.304,0.432,0.479v-3.856h0.897v11.396
				H151.911 M151.894,46.561c0-0.528-0.128-0.88-0.366-1.121c-0.209-0.192-0.481-0.304-0.785-0.304c-0.32,0-0.608,0.16-0.784,0.368
				c-0.369,0.448-0.401,1.297-0.401,3.042c0,1.744,0.032,2.576,0.401,3.024c0.176,0.208,0.464,0.368,0.784,0.368
				c0.304,0,0.576-0.096,0.785-0.288c0.238-0.24,0.366-0.608,0.366-1.137V46.561z"/>
			<path id="r1" fill="#FFFFFF" d="M111.591,45.185c-0.961,0-1.585,0.607-1.585,1.584v5.843h-0.896v-8.148h0.881v0.865
				c0.08-0.176,0.271-0.399,0.398-0.512c0.368-0.337,0.85-0.481,1.394-0.481v0.85H111.591"/>
			<path id="e1" fill="#FFFFFF" d="M118.678,48.674c0,1.664,0.049,2.48,0.417,2.896c0.177,0.208,0.448,0.368,0.817,0.368
				c0.319,0,0.606-0.096,0.814-0.319c0.24-0.257,0.368-0.656,0.368-1.153h0.881c-0.016,0.785-0.176,1.281-0.593,1.713
				c-0.351,0.368-0.912,0.561-1.471,0.561c-0.641,0-1.121-0.208-1.473-0.593c-0.546-0.576-0.656-1.648-0.656-3.601
				c0-1.953,0.11-3.042,0.656-3.617c0.352-0.386,0.832-0.594,1.455-0.594c0.624,0,1.105,0.208,1.457,0.594
				c0.576,0.624,0.641,1.776,0.641,3.745H118.678 M120.696,45.504c-0.178-0.208-0.434-0.367-0.802-0.367
				c-0.367,0-0.64,0.159-0.815,0.367c-0.321,0.368-0.384,1.072-0.401,2.449h2.417C121.08,46.577,121.015,45.873,120.696,45.504z"/>
		</g>
		<g id="en">
			<path id="e2" fill="#FFFFFF" d="M161.139,48.674c0,1.664,0.049,2.48,0.417,2.896c0.177,0.208,0.448,0.368,0.817,0.368
				c0.319,0,0.607-0.096,0.814-0.319c0.24-0.257,0.368-0.656,0.368-1.153h0.881c-0.016,0.785-0.176,1.281-0.593,1.713
				c-0.351,0.368-0.912,0.561-1.471,0.561c-0.641,0-1.122-0.208-1.473-0.593c-0.545-0.576-0.656-1.648-0.656-3.601
				c0-1.953,0.111-3.042,0.656-3.617c0.351-0.386,0.832-0.594,1.456-0.594s1.104,0.208,1.456,0.594
				c0.576,0.624,0.641,1.776,0.641,3.745H161.139 M163.157,45.504c-0.177-0.208-0.434-0.367-0.801-0.367
				c-0.368,0-0.641,0.159-0.816,0.367c-0.321,0.368-0.384,1.072-0.401,2.449h2.417C163.541,46.577,163.476,45.873,163.157,45.504z"
				/>
			<path id="n3_1_" fill="#FFFFFF" d="M127.751,52.612v-6.131c0-0.896-0.496-1.329-1.12-1.329s-1.136,0.433-1.136,1.329v6.131
				h-0.897v-8.147h0.881v0.656c0.097-0.176,0.32-0.4,0.465-0.496c0.256-0.176,0.56-0.288,0.929-0.288c0.544,0,0.944,0.208,1.28,0.56
				c0.319,0.336,0.496,0.784,0.496,1.602v6.114H127.751"/>
		</g>
		<g id="for">
			<path id="f1" fill="#FFFFFF" d="M99.031,45.233v7.379h-0.896v-7.379h-0.993v-0.705h0.993V43.36c0-0.752,0.209-1.28,0.608-1.648
				c0.465-0.417,1.057-0.528,1.68-0.528V42c-0.912,0-1.392,0.448-1.392,1.36v1.168h1.392v0.705H99.031"/>
			<path id="o1" fill="#FFFFFF" d="M105.847,52.099c-0.352,0.433-0.848,0.641-1.505,0.641c-0.656,0-1.151-0.208-1.505-0.641
				c-0.496-0.592-0.606-1.633-0.606-3.553c0-1.921,0.11-2.962,0.606-3.554c0.354-0.432,0.849-0.657,1.505-0.657
				c0.657,0,1.153,0.226,1.505,0.657c0.496,0.592,0.609,1.633,0.609,3.554C106.456,50.466,106.343,51.507,105.847,52.099
				 M105.143,45.504c-0.177-0.208-0.447-0.367-0.801-0.367c-0.351,0-0.639,0.159-0.815,0.367c-0.368,0.448-0.401,1.297-0.401,3.042
				c0,1.744,0.033,2.576,0.401,3.024c0.177,0.208,0.465,0.368,0.815,0.368c0.354,0,0.624-0.16,0.801-0.368
				c0.368-0.448,0.416-1.28,0.416-3.024C105.559,46.801,105.511,45.953,105.143,45.504z"/>
			<path id="r2" fill="#FFFFFF" d="M158.214,45.185c-0.961,0-1.585,0.607-1.585,1.584v5.843h-0.896v-8.148h0.881v0.865
				c0.08-0.176,0.271-0.399,0.398-0.512c0.368-0.337,0.85-0.481,1.394-0.481v0.85H158.214"/>
		</g>
		<g id="kunnskap">
			<polyline id="k1" fill="#FFFFFF" points="43.211,52.612 41.002,46.977 39.898,49.154 39.898,52.612 38.953,52.612 38.953,41.215 
				39.898,41.215 39.898,47.41 42.923,41.215 43.931,41.215 41.594,45.92 44.235,52.612 43.211,52.612 			"/>
			<path id="u1" fill="#FFFFFF" d="M49.451,52.612v-0.656c-0.096,0.176-0.32,0.4-0.464,0.496c-0.256,0.176-0.56,0.287-0.929,0.287
				c-0.544,0-0.944-0.191-1.28-0.543c-0.32-0.337-0.496-0.801-0.496-1.617v-6.114h0.896v6.131c0,0.896,0.496,1.327,1.121,1.327
				c0.624,0,1.136-0.432,1.136-1.327v-6.131h0.896v8.147H49.451"/>
			<path id="n1" fill="#FFFFFF" d="M56.426,52.612v-6.131c0-0.896-0.496-1.329-1.12-1.329c-0.625,0-1.137,0.433-1.137,1.329v6.131
				h-0.896v-8.147h0.88v0.656c0.096-0.176,0.32-0.4,0.464-0.496c0.257-0.176,0.56-0.288,0.929-0.288c0.544,0,0.944,0.208,1.28,0.56
				c0.321,0.336,0.496,0.784,0.496,1.602v6.114H56.426"/>
			<path id="n2" fill="#FFFFFF" d="M63.354,52.612v-6.131c0-0.896-0.496-1.329-1.12-1.329c-0.625,0-1.137,0.433-1.137,1.329v6.131
				h-0.896v-8.147h0.88v0.656c0.096-0.176,0.32-0.4,0.464-0.496c0.257-0.176,0.561-0.288,0.929-0.288c0.544,0,0.944,0.208,1.28,0.56
				c0.321,0.336,0.497,0.784,0.497,1.602v6.114H63.354"/>
			<path id="s1" fill="#FFFFFF" d="M70.346,52.116c-0.4,0.399-0.928,0.623-1.552,0.623c-0.625,0-1.121-0.208-1.489-0.575
				c-0.464-0.48-0.64-1.072-0.64-1.762h0.896c0,0.513,0.112,0.897,0.416,1.201c0.224,0.224,0.513,0.336,0.817,0.336
				c0.383,0,0.688-0.128,0.928-0.368c0.24-0.24,0.368-0.592,0.368-1.008c0-0.336-0.064-0.624-0.224-0.881
				c-0.176-0.272-0.432-0.496-0.816-0.704l-1.025-0.561c-0.512-0.288-0.88-0.656-1.056-0.96c-0.16-0.304-0.224-0.624-0.224-1.024
				c0-0.625,0.256-1.153,0.64-1.537c0.368-0.368,0.88-0.56,1.457-0.56c0.608,0,1.088,0.176,1.456,0.544
				c0.4,0.399,0.592,0.976,0.592,1.761h-0.896c0-0.608-0.096-0.913-0.352-1.185c-0.224-0.24-0.512-0.32-0.8-0.32
				c-0.352,0-0.641,0.096-0.849,0.304c-0.256,0.24-0.352,0.624-0.352,0.961c0,0.271,0.048,0.513,0.16,0.704
				c0.112,0.208,0.384,0.4,0.752,0.608l1.009,0.576c0.528,0.288,0.88,0.593,1.104,0.961s0.321,0.816,0.321,1.28
				C70.987,51.171,70.73,51.731,70.346,52.116"/>
			<polyline id="k2" fill="#FFFFFF" points="77.194,52.612 75.434,48.37 74.361,50.067 74.361,52.612 73.465,52.612 73.465,41.215 
				74.361,41.215 74.361,48.738 76.938,44.464 77.915,44.464 75.994,47.585 78.187,52.612 77.194,52.612 			"/>
			<path id="a1" fill="#FFFFFF" d="M83.273,52.612v-0.736c-0.112,0.224-0.304,0.432-0.448,0.544
				c-0.256,0.192-0.528,0.319-0.977,0.319c-0.512,0-0.944-0.175-1.296-0.543c-0.304-0.32-0.528-0.961-0.528-1.841
				c0-0.769,0.224-1.425,0.688-1.841c0.4-0.368,0.864-0.545,1.601-0.545h0.928v-1.456c0-0.896-0.368-1.394-1.121-1.394
				c-0.319,0-0.56,0.129-0.736,0.305c-0.256,0.271-0.368,0.593-0.368,1.137H80.12c0-0.608,0.128-1.217,0.592-1.681
				c0.336-0.337,0.816-0.545,1.408-0.545c0.641,0,1.137,0.177,1.457,0.513c0.368,0.385,0.56,0.896,0.56,1.697v6.066H83.273
				 M83.241,48.674h-0.896c-0.416,0-0.721,0.096-0.993,0.352c-0.272,0.271-0.432,0.768-0.432,1.313c0,0.977,0.352,1.601,1.136,1.601
				c0.721,0,1.185-0.624,1.185-1.473V48.674z"/>
			<path id="p1" fill="#FFFFFF" d="M90.553,52.164c-0.304,0.352-0.704,0.576-1.265,0.576c-0.368,0-0.656-0.08-0.928-0.256
				c-0.16-0.097-0.352-0.305-0.448-0.48v3.857h-0.896V44.463h0.88v0.657c0.08-0.176,0.336-0.399,0.464-0.496
				c0.272-0.191,0.56-0.289,0.928-0.289c0.497,0,0.929,0.192,1.265,0.577c0.496,0.576,0.609,1.601,0.609,3.634
				C91.162,50.579,91.049,51.587,90.553,52.164 M89.849,45.504c-0.176-0.208-0.464-0.367-0.785-0.367
				c-0.303,0-0.56,0.111-0.768,0.304c-0.24,0.24-0.384,0.592-0.384,1.12v3.954c0,0.527,0.144,0.896,0.384,1.136
				c0.208,0.192,0.465,0.288,0.768,0.288c0.321,0,0.609-0.16,0.785-0.368c0.368-0.448,0.416-1.28,0.416-3.024
				C90.265,46.801,90.217,45.953,89.849,45.504z"/>
		</g>
	</g>
	<g id="NTNU">
		<path id="U" fill="#FFFFFF" d="M150.044,0.032v1.063h-4.384l-0.045,3.764v16.923c0.045,4.384,0.133,8.549,8.374,8.549
			c8.327,0,8.857-3.632,8.991-7.574V4.859l-0.045-3.764h-4.475V0.032h9.79v1.063H164.4l-0.045,3.764v16.126
			c-0.048,5.803-0.091,10.764-11.565,10.764c-1.636,0-5.536-0.176-8.017-1.195c-3.942-1.685-4.03-5.138-4.075-9.392V4.859
			l-0.044-3.764h-3.811V0.032H150.044"/>
		<polyline id="N2" fill="#FFFFFF" points="112.289,0.032 127.618,22.313 127.618,5.17 127.572,1.095 122.965,1.095 122.965,0.032 
			132.845,0.032 132.845,1.095 129.034,1.095 128.99,5.17 128.99,31.704 128.282,31.928 107.727,2.025 107.727,26.035 
			107.77,30.243 112.51,30.243 112.51,31.307 102.278,31.307 102.278,30.243 106.354,30.243 106.398,26.035 106.398,5.17 
			106.354,1.095 102.278,1.095 102.278,0.032 112.289,0.032 		"/>
		<path id="T" fill="#FFFFFF" d="M99.707,0.032v10.01h-1.329c-0.131-1.55-0.307-3.499-1.684-5.802
			c-1.592-2.703-3.764-2.836-5.889-2.924h-2.483l-0.044,3.987v20.422l0.044,4.518h4.785v1.064h-14.53v-1.064h4.784l0.045-4.518
			V5.303l-0.045-3.987h-2.037c-2.57,0.044-4.519,0.044-6.38,3.012c-1.461,2.348-1.594,4.209-1.684,5.714h-1.284V0.032H99.707"/>
		<polyline id="N" fill="#FFFFFF" points="48.586,0.032 63.915,22.313 63.915,5.17 63.87,1.095 59.263,1.095 59.263,0.032 
			69.142,0.032 69.142,1.095 65.332,1.095 65.287,5.17 65.287,31.704 64.579,31.928 44.024,2.025 44.024,26.035 44.068,30.243 
			48.808,30.243 48.808,31.307 38.575,31.307 38.575,30.243 42.652,30.243 42.694,26.035 42.694,5.17 42.652,1.095 38.575,1.095 
			38.575,0.032 48.586,0.032 		"/>
	</g>
</g>
</svg>
